/* XPM */
static char *_f40bd45b1ed45539444e42a4c3d339cMdq37GpjgEAEgHLl[] = {
/* columns rows colors chars-per-pixel */
"75 50 256 2 ",
"   c #4F3C32",
".  c #713C2F",
"X  c #56483B",
"o  c #494B3E",
"O  c #664A3B",
"+  c #7B4C3C",
"@  c #794737",
"#  c #6B503F",
"$  c #79543D",
"%  c #7D442C",
"&  c #413C40",
"*  c #3F4D4E",
"=  c #4B4848",
"-  c #584C46",
";  c #5A534A",
":  c #5B5655",
">  c #495056",
",  c #664D47",
"<  c #7C4C44",
"1  c #744A43",
"2  c #6B5B4C",
"3  c #655549",
"4  c #7D5343",
"5  c #7C5A45",
"6  c #745A4C",
"7  c #7C5C4C",
"8  c #755548",
"9  c #6C5C53",
"0  c #655957",
"q  c #745C54",
"w  c #7C5E54",
"e  c #785957",
"r  c #6D624B",
"t  c #7D624D",
"y  c #76644C",
"u  c #69645A",
"i  c #746455",
"p  c #7B6353",
"a  c #75635B",
"s  c #7C645A",
"d  c #756C5D",
"f  c #7C6B5B",
"g  c #7A6B55",
"h  c #78755D",
"j  c #6A725A",
"k  c #545B65",
"l  c #5B6A67",
"z  c #6A6965",
"x  c #7C6D63",
"c  c #786A65",
"v  c #7D7563",
"b  c #79766C",
"n  c #757575",
"m  c #69726E",
"M  c #65615F",
"N  c #853E2C",
"B  c #883F1C",
"V  c #88462C",
"C  c #9A552F",
"Z  c #834B34",
"A  c #834B3C",
"S  c #8A4B3B",
"D  c #864736",
"F  c #934B38",
"G  c #85543D",
"H  c #8B523B",
"J  c #865839",
"K  c #9A5A3B",
"L  c #96563A",
"P  c #944B2D",
"I  c #AA5526",
"U  c #A35C3B",
"Y  c #A45836",
"T  c #B0582C",
"R  c #9A623C",
"E  c #88633B",
"W  c #BA6529",
"Q  c #A7643B",
"!  c #B5673D",
"~  c #854D43",
"^  c #8B4E44",
"/  c #914C42",
"(  c #845444",
")  c #8C5444",
"_  c #845A45",
"`  c #8B5B44",
"'  c #84554A",
"]  c #8B5649",
"[  c #835C4C",
"{  c #8C5C4C",
"}  c #935444",
"|  c #9B5443",
" . c #935B44",
".. c #9B5C43",
"X. c #935749",
"o. c #935C4B",
"O. c #9A5C4C",
"+. c #9E554E",
"@. c #835D52",
"#. c #8C5D52",
"$. c #8A5C58",
"%. c #945D52",
"&. c #9B5E51",
"*. c #9C5957",
"=. c #A55C43",
"-. c #AA5A44",
";. c #A45E55",
":. c #8C6345",
">. c #84634D",
",. c #8B634C",
"<. c #8C694E",
"1. c #84684D",
"2. c #9C6345",
"3. c #93634D",
"4. c #9B644C",
"5. c #94694D",
"6. c #9B6B4C",
"7. c #986744",
"8. c #9A724A",
"9. c #846453",
"0. c #8C6453",
"q. c #846A53",
"w. c #8C6A54",
"e. c #84655A",
"r. c #8D655A",
"t. c #846C5C",
"y. c #8C6C5B",
"u. c #936453",
"i. c #9C6453",
"p. c #936B54",
"a. c #9B6B54",
"s. c #93655B",
"d. c #9B655C",
"f. c #936C5B",
"g. c #9A6C5B",
"h. c #8B7255",
"j. c #85725C",
"k. c #8C735C",
"l. c #88775A",
"z. c #947255",
"x. c #9B7355",
"c. c #94735C",
"v. c #9C735C",
"b. c #937A5D",
"n. c #9C7A5E",
"m. c #9F7B54",
"M. c #88744F",
"N. c #A56344",
"B. c #A5644C",
"V. c #AB634A",
"C. c #A36B4C",
"Z. c #AB6C4B",
"A. c #A96944",
"S. c #B66B4C",
"D. c #B4734A",
"F. c #A26453",
"G. c #AA6552",
"H. c #A26B54",
"J. c #AB6C53",
"K. c #A36D5C",
"L. c #AB6C5B",
"P. c #A7645C",
"I. c #B66B53",
"U. c #A47353",
"Y. c #AB7355",
"T. c #A3745C",
"R. c #AA745E",
"E. c #A47B5C",
"W. c #AB7C5C",
"Q. c #A97855",
"!. c #B47657",
"~. c #A87149",
"^. c #836B62",
"/. c #8C6C63",
"(. c #866965",
"). c #936D63",
"_. c #9A6D62",
"`. c #976764",
"'. c #847464",
"]. c #8C7364",
"[. c #8D7A63",
"{. c #84746B",
"}. c #8C756B",
"|. c #847B6B",
" X c #8B7B6B",
".X c #857A65",
"XX c #937463",
"oX c #9B7563",
"OX c #947A63",
"+X c #9C7B64",
"@X c #93756B",
"#X c #9B746A",
"$X c #947B6A",
"%X c #9B7C6B",
"&X c #887B74",
"*X c #957E72",
"=X c #9B7C73",
"-X c #A36C64",
";X c #AB6C64",
":X c #B56C66",
">X c #A37463",
",X c #AA7363",
"<X c #A37B63",
"1X c #AB7B64",
"2X c #A3756A",
"3X c #A37D6B",
"4X c #AB7B6B",
"5X c #AC746B",
"6X c #B47A66",
"7X c #A57C74",
"8X c #B57971",
"9X c #8A5F69",
"0X c #C57E68",
"qX c #C47846",
"wX c #9C825C",
"eX c #A5825E",
"rX c #B5885E",
"tX c #938264",
"yX c #9C8265",
"uX c #96826C",
"iX c #9C826C",
"pX c #9B896B",
"aX c #8A8577",
"sX c #948373",
"dX c #9B8472",
"fX c #998978",
"gX c #8D826E",
"hX c #A48265",
"jX c #AD8363",
"kX c #A3836C",
"lX c #AA836B",
"zX c #A58B6D",
"xX c #AC8A6C",
"cX c #A78A64",
"vX c #B58669",
"bX c #A48473",
"nX c #AB8472",
"mX c #A48A73",
"MX c #A58B7A",
"NX c #AB8A77",
"BX c #B68876",
"VX c #AB927C",
"CX c #A59279",
"ZX c #B69578",
"AX c #AE9168",
"SX c #C2886A",
"DX c #C2937A",
"FX c #7D8B8C",
"GX c #939189",
"HX c #A78E80",
"JX c #A79586",
"KX c #B59987",
"LX c #A9938B",
"PX c #ABA394",
"IX c #9CA69D",
"UX c #C2A995",
/* pixels */
"NXQ.J.!.qXHXFXGXnX:XvX6XSXfXn LXx.O.G.i.T.kXoXNXZ.R.I.Y.kXt.b.x. .&.i.&.0.+ 4 < < r.{ { oX0.{ ^ ] q.>.t y.i.,.( q.,X5.b.b.p.p.g.,X+Xw.a.c.u.H.p.+Xz.x.",
"DXvXBXSXKXPXn IXBXBXBXW.Q.fXm HXK.F.;Xi.+X#Xg mX!.qXD.J.mXy.$XVX3.a.-Xg.z.XXf.r.0.w.u.0.OX_ _ ` [ y.0.u.f.) X.] [ >X~ F.T...B.B.=.W.K  .C.L K P P Z.=.",
"S.BXBXvXZX!.6XG.Y.ZX+XbXvXL.6X4X8XIXIXJX,XR.J.;.4XpX/.MXB.D.D.J.lXR.K.n.%.3XoX~ u.u.' #.@.w g.u.f.u.[ 0.&.v.h.w.+Xp.5.p.] p.g.w.c.a.o.{ [ z.W.H.v.oXp.",
"4XZXLXKXKXBXBXDXSXKX7X7XnXW.n.yXyXIXIXJXT.8.R.i.XXk.f.z.=.:.U =.n.1X6.+X4X+Xk.#.XXs.[ ~ 4 8 g.[ 0.) 4 ] ) z.q.>.OX$ ( + + P.] S w.@ @ + @ 5.R.F.K.A % ",
"VXoX!.S.5XKX0XBXKX!.I.:XkXCXx sXW.6XJ.F.VXb b sXT.G.a.i.jXi.3X<.{ ` G X.%X< D + ( 3.L 4.H.i.,.o.` v.K.4.a.) O.o.O.4Xu.e.].p 6 t u.$X#.u.v.u.o.3.u.a.x.",
"KXxXvX4XlXUX0XMXZXvXjX+XnXMXq @X1X4XT.<XZX[.uXVXC.4.+XY.BXv.$Xc.u.u.,.&.+XoXu.6.f.a.B.4.6. .>.o.` <.i.i.v. .o.} K H.A ] r.6 8 < ( OX] ^ f.@ D @ . 3.4.",
"7 kXx m BX~.n.a.J.HXz &X0XP.;X:X8X=X{.VXJ.-.I.V.<Xz k fXN.7.a.u.n.a.x.v.+ 0.[ Z p.+.i.i.} a.s.{ a.( + $ G 5.:.,.f.' @.@.^ ,.u.| <XT.5.4.T.n.R.` <.z.>.",
"dXBXsXfXeX8.wXbXZXCX&XsXBX5X7X6XBX%Xt.ZX8.:.q.b.mXn n uXa.y./.>.+Xz.5.k.' /.g.3.z. .a.a.u.v.a.G ,.O.o.&.o.p.o.) +Xt 5 ~ 4 u.E. .z.a./ X.u.3X1X^ T.( . ",
"J.J.1XMX3XAXB.kXnX6.W.g.oX<Xa.BXW.D.S.V.).FXGXGX*X,XL.a. Xn z h < @ @ 4 K.} ) } | p.I.L.kX{ u.] ' 5Xu._ g._ ' ] ` /.c e f.{ i.{ ) a.z.<.E.X.X.{ O.oXf.",
"vXjXbXnXVXCX1XZX4X$X3Xp.pXeX,XmXa.z.x.OXgXfXaXiXmXiXf.z.bXoX].%X0.q.0.r.h.u.3.,.5.5.H.v.w._ [ s.0.w.f.' z.>.oXu.` ,.y 7 s.L ` :. .lX+Xc.lXi.5.K.O.T.+X",
"-.vXh.z.ZXB.4.R.a.cXS.V.hX2.2.2.{ %X@.h.v.B...=.8.3Xu.T.i...a.+.oXd.y.i.^ a.| X.O.F S % ) >XX.u.g.+ < ' ( g.{ X.n.H X.` A i.` K p._ ] O.( T.,X..4Xz.:.",
"OX<XyXmXfXhXjXkXdXcX8.x.3Xf.w.j.%XmXpXyXzXb.<XyXMXuXr.].l.^.i 5.h.oX+Xn.<XhXn.x.h.a.n.f.n.kXg.s.n.0.q.9.q.).0.f.@X{ i.3.>.3X>XL.yXf.-XK.c.+Xx.i.+Xu.] ",
"J.g.%Xc c KXB.E.<X| 3.3.u.$X).].j.g.s.[ 9.@X9.sXf [./.t. Xu a z.( k.u.[ c.)  .| | x...X.oXf.q.%.+ f.OXy.oX0.0.>.e.r.oXu.>Xg.>Xp.&.6X_.7 4Xa.O.} { g.1X",
"W.cXvXnXBXNXyXuX Xh.x.z.b.pX+XpXtXl.t.s j.4X%X7Xz.bX$Xk.}.@X$X$XyX+Xu.0.>.>.[ <.,.c.K.s.k.c.u.e.{ u.f.0.w.g.9.y.f.oX+Xs.c.f.{ >.a.d.p.w.+Xf.f.w.<.a.1X",
"X.cX!.Q Q -.kXd : M.Q 1X*Xq.9.%.+XNXy.@X>X,Xa.<.p.XX[ b.0._ 0.[ M.+ 4 A D ( { { g.;.d.{ w.f.S z.u.( s.X.u.g.0.oXa.u.d.s.w.>Xu.K.oXa.H.F.a.%X>.9.k.7 ( ",
">X4XxXdX|.xXeXW.x.Y.m.ZX+X%X%XiX{.sXOXk.iXuX%XpXb.b.).g h.,.'.tXoXk.w.y.t.k.oXT.$X[.pXXXoXgXh.f.[.c.g.z.b.b.y./.9.).(.].).z.h.f.>XT.g.a.1X3Xt.gX%Xw.w.",
"1XR.hXb k kXW W W I D.jX .3.e.fX> : [.` a.f.OXMXy.XX@X6 b.5 y MX3X3XXX*X X0.0.q._ ].s.#X*X@.d.$.( OX#.[ 3X#.@  .) g.u.@.XX@.f.d.X.w.d.u.3X6X4X6XK.lXyX",
"&X$XvX!.R.E.E.dXx j.Y.<X|.}.z.eXa.z.7.h.$XoXb.oXtXyXOXzXn.5.E.M.OXy.XXXXXXOXtXf.uXXXoXoXw.OX].f k.oXf.{ @.].u.:.<.w.f.>.XXu.].].q.b.n.c.4X4XyX+Xn.lX3X",
"(.&XvXA.=.! ! yX: x x.Z 7 G D.W Q ! Q b.e.i._ @ yXs y h.$ G 3.J w.3X3XoXoXsXmXg.pXu.&.O.G +X>Xp.+X` 0.4 @ 9.0.D z.>.] %.X.{ oX0.+X0.A ) X.&.c.4 <.>XL.",
"3XeXZXsXb ZX!.jXC.U.8.U.A.8.U.U.,Xn.Q.Q.5.:.h.kXjXn.v.3.b.d d v.0.%Xy.].bX@Xf.f.x.%Xc.f.OXn.a.4.p.<.w.g k.p q.{ q.oXf.0.p.{ ,.g.f.h.z.<.b.+Xf.0.w.3X1X",
"=X].%XaXm VXQ -.U .._ R.A.N.s.ZXa.x.8.R 8.E A.eXJ J J <.%Xu j MXd.c.f.y.$X0.' 0.o.yXy.p f.( J G N c.3.O.y.@ D @ D XXf.w.OX+ 3.0.( 1Xo.( oXi.i.;X;.R.p.",
"j.nX X X$X+XfX$X2 q.Q.!.D.~.rXeXR.!.cX2X>XVXjX,X2X>XdXt.^.HXXXk.tXd.-Xf.y.mX#Xg.sXf.).w.u.+Xb.8 >.>.w.{ 9.'.v.u.3XXXs.oXf.g.+Xu.OXoX0.[ >X>XkXF.v.yXtX",
"q.HXbX(./.q.uX{.z =XSXqXD.A.!.8.2.-.<XfX/.kXo.&.;.;.bXc u bXr.}.pXy.w.oX].MXk.p.NX&.&.%.O.%XoX~ oXD A @ @ >.{ S %X( A ] .  .T.D u.< ~ ~ ~ &.,XD ) 4.} ",
"9X-XfXz }.BXD.!.oXBX Xu KXnX5Xg.H.+X+X>.OX+XR.T.v.kXoX(.3Xv.a.-X,X7X4X;XBX<X,X,Xv.kX%X XbXd.a.i.i.b.>.>.3X#.oXi.i.c.,X3.v.H.u.w.c.y.2X_./.kXx.5.a.1Xv.",
"2X).uXz x jXZ.D.`.<XmXf KXBXg.oXR.jXHX/.bX6XJ.;.;X8X#Xe.y.f.r.s.#.XX-Xi.nXP.P.-X%.+X/.e.c.] +.Z V E.o.) +X4.F F F @Xp.V ,X .B 4 1 + c.F H jXN K ..V C.",
"z xXZ.V.S.N.hXn z $XR.I.I...4X/.%XnXOX/.].*XuX(.j.#XoXw.] a.w.[ *XXXu.XXy.XXv.7.).v.x.u.F.oXe.p @X#Xr.#.{ >X*X`.<Xg.x.5.v.w.].%.).Z.7.a.a.oX].f.,.a.+X",
"b jXQ x.C.Z.rXGXgXkXU.L.N.C.<Xg /.$Xs.`.$.).[.a .XoX#.) L o.h.# #Xg.s.( 1 '.3.C c.J Z J V 3.y.5 j.#.G @ % ] t.X f ^ D F P Z k.@ q.2.B P V V hXK S g.G ",
"Z.=.z.aXm %Xd.2XK.%X{., @X{ s.p.X.hXf i mXv.T.<X2X+Xk.w.x.6.4.5.V.g.w.3.b.w.%.w.f.p.{ ^ p.p.u.{ :.a.u.G x.o.5.X.,.y.w.o.#X{ R O.B.T.h.7.6.0.].p.f.oXv.",
"2.g.nXfX&X7X4X>Xd.w.p q.+Xf.s.s.O.bX X.XHX3.{ O.` 2Xv.a.kXH.Q K J z.g.5.n.-X*.#.X.w.H.L hXa.L ( S a.5. .m.K Y N.&.E.J.F Q.Q Y Y C Y Q.C A.t O 4 S H K.",
"M {.e $.#.$.%Xv , oXL.G.g.x 0 '.c e c.f.@X@Xs dXOXXXy.t.HX'.r OXu.y.g.XXfXz aXxXF.oXoX<X X2 7Xp t.>XO.i.f.K.tXu '.W.2.G.Q.U.3Xr.n.S.Z...2.&.`.t n.<XQ.",
"gXzXy.j.w.v.+Xl.d +XR.Z.7.$Xr tXt.e.` <.oXk.w +Xp >.5 6 f 2 9 %X%.e.[ p.$Xo |.Q.V.u.` f. X2 OX3 l.U. .) { 4.l.= r ~.C ! I Q h.O g Q I I I Y +XX h.z.G ",
"{ %.#Xu 9 4.-.U y.2 *Xd.J.G.-X-X.X9 $X/.p q 9 j.a i g.I.C.C.C.n.k.i %XQ.J.d.-Xn.j.: yX6.v.K.{ ].].:.v.3 k.Z.R F.O.C.cXy k.6XA.B.Q A.yXi y kX_.z.y.p.n.",
"7 ,.xX^.f hXQ.W.tXp dXvX,X>Xn.n.v 9 $Xk.w x f [.p u wXD.S.A.~.lX'.t xXn.B.B.u.>X.Xi mXq.r.c.>.pXg.{ $X9 XXC.L -.Q Z.lXr q.Y.P Y Y Y E.> 0 7.D L F Z 1X",
"z =X,XG.:XL.d.*X: t./.3 h > > _.4 2.H G n.d u jXi.H.7.X.dXl j F.K Y L p.|.= f 6.Z.A.K 7.[.; '.y.#.o.4.x.{.; aX- u W.C  .` J v.u u hXU.U.,Xg.h.i 5 >.5.",
"z sXE.4XNX6X>XsX{.OX[.t.+X.X&X1XC.H.<Xa.E.gXaX<X:.H.C.z.fXc '.x.L H ) { ^.; |.<.@ J Z :.OX0 .Xc.<.K L  .j.r .X= v o.V F Z V 5.- X d.~ H K V.z.& X y # ",
"O.4.:.sX> = aXl  XfX; }.BX:XvX8X8Xb > sXnX).(.p c.sX.XxXi.F.G.oXyX0 u yXO.a.>X,.k.h f v.Z  .Z C 4.f > [.Q Q A.! C.p.i j.x.R R v.7.hXc 3 n.1.z.r.f.+Xb.",
"OX XNXVXz /.dXz }.uXi $XlX1X1X>XY. X; v cX6.s.a.p.*Xx n. .6.4.u.iX0 u pX,.u.3.,.$X; i <XZ O.} P 3.&Xz sXA.Y K U R mX: j.jX~.B.Q N.NXb = mXL ) E @ a.NX",
"8 7XK.X.d. .7.y.e @.R.F.0.dX9 u OX$.`.t.y.fX.X).vXx.u.9.M.[.9 l.hXe.(.0.0.uXy sX<Xf.g.u.3X&X0 ].n.5.B.3.y.yX9.'.eXn.x.u.x.NXb.OXmXr.z.a.i.b.].h.jXeXE.",
"7.kXXXw.+X$XNX).[ h.v.d.2XCXd '.tXu.#.9.@.OXr p +X:.u.b.l.aX: {.g.>.[ 7 q.MX- {.z.,.3._ >.|.; |.f.< _ a.5 oX_ g R.H F P.@.z.$ 3 b.~ Z Z % w.- > x.i. .",
"} { yXx.5.xXc.` o.8.d : HX8X6X6X:XlXd : hX6.d.).p.+XkXz.kXXX/.n.s b.k.y.pX/.OXc.(.x d f c.` { 0.0.p.9 ; >.5.p.n.g.5.yXg 0.U.6.#.g.6.XXt v.3X/./.>Xz.x.",
"4.p.+XwX+X3Xw.6.H.c.g q bX,Xd.-X5X#Xd ; $Xs.a.s.s.f.q.$ z.5 6 # 1 f 3 5 t.7 1 6 # f t.p ).' < 5 < 8 ,   r A ~ 4 Z J oX3 t Q.=.F.L U p.O u.J @ D N ( w.",
"].c , ].1.[ /.v ; s >XoXe.f.b.j.i *Xt.#Xr.#.y.h.s mXOX).k.j.].^.a ].XXoXoX_.$Xv  X|.0 0 3 3 s i e 9 M : : 0 (.e.d OXp.3.u.z.v.B.C.s._ ,.f.0.u.e.q.b.n.",
"sXb c @X_ o.f.c = s 3Xr.@X).r./.>.nXr.r.g.@.oXXX9 yXg.r.w.w.@X'.; $X7XXXf.).dXh '.{., 3 X - s f z a = = = = M 3 - ].J 2.4._ 5.S  .( % A 1 + [ - 3 f.} ",
"i.n.bX%XoXoX$Xf.uXb {.+X1X8X).f.kXt.i $X9.9.t.s $XsXu {.*Xs q f s  Xs g OX).f.f.f.OX5 9.v.,.0.r.>.y.a ; t.s.r.t.e.sXw.y b.a.4._ p.K.z.O 9.y.p r 6 /.u.",
"f.+Xq.XX(.9Xq.s.@Xb {.BX:X;X_.&.OXq 2 gXt.y.e (.0.}.0 M (.9 3 8 3 {.3 g p # [ { { f.[ 5 u.[ ' w + #.e ; MXd.' 5 { g.r., 6 ` S @ A F 5 X O ' 1 + / . ` ",
"s ].u.r.(.7 ).f a }.oXg.<Xp 3 (.#X@XXXXX@X$X].}.CXOX#X7X%X+XsX'.uXoXXXk.t 7X'.|.sXi a a 9 ^.].8 i q.[ :.i.a.}.w.].>XoXy.s.f.0.6 e w.,.9.7 e.e.6 # 5 $ ",
"2 [.5 @.8 5 f.s - t.i.o.9.e.- u f 1 @.#.6 ].r d fX<.F.g.J hX'.0 yX{ _ 8 6 @Xb b  X9 z 0 ; a /.1 i s.@ + S { /.6 w f.# >.#.< /.X   p ( ( ' < 5 ,   7 A ",
"g.z.sX(.&Xx 9 w q 9 v u j.5X_.oXXXp 2 $X7 ,.-XoXg.@Xx b sX Xb |.{.=Xt.j.XXz.oXv.>XOXt., t.r.9.>.<.{ }.u ].).s p w p oXp w ).f.y.9.0.q./.6 w p.w.[ p.3X",
"o.oX$X- d s , , X - a 0 q f.%.-X(.t 8 k.5 + H ) ] w., 0 z 3 8 6 9 1.2 6 k.P.i.O.+.oXd X XX' < ( S 1 f u v '.7 < 7 1 y.; ; $X` o.#.[ 7 q   O 0.( ' ( ] ",
"[.oX3X@X#X/.'.3 @.)./.{./.(.t.c ].yXOX%Xu.a.b.t.p b./.).#X/.b.x a z.9.9.k.s.x.y.9.+Xj.^.w.q.e.0.5 [ t.s /.@X@X.Xs t.f.@X#X<XoXOXoXy.9.t.e.y.oXoX/.w.c."
};
